<svg width="9" height="16" viewBox="0 0 9 16" fill="none" xmlns="http://www.w3.org/2000/svg">
<path fill-rule="evenodd" clip-rule="evenodd" d="M0.375667 0.0551072C0.059763 0.194858 -0.0829877 0.548738 0.049161 0.864601C0.0843594 0.948764 1.11284 1.94922 3.77614 4.49007L7.45448 7.99929L3.77601 11.5089C1.10912 14.0533 0.0841963 15.0504 0.0490306 15.1347C0.0223464 15.1987 0.000522834 15.3081 0.000522834 15.378C0.000522834 15.829 0.478163 16.1303 0.897607 15.944C1.0844 15.861 8.86075 8.43952 8.94322 8.2655C9.01893 8.10581 9.01893 7.89352 8.94322 7.73382C8.86075 7.55981 1.0844 0.138333 0.897607 0.0553573C0.731663 -0.0183638 0.54197 -0.0184576 0.375667 0.0551072Z" fill="white"/>
</svg>
