<svg width="41" height="41" viewBox="0 0 41 41" fill="none" xmlns="http://www.w3.org/2000/svg">
<path fill-rule="evenodd" clip-rule="evenodd" d="M23.561 0.107358C23.1726 0.246023 22.7166 0.676371 22.5208 1.08892C22.4403 1.2587 22.3826 1.56698 22.3837 1.82274C22.3868 2.60588 22.7656 3.21443 23.4508 3.53739C23.8044 3.70405 23.9194 3.70822 29.2034 3.74752L34.5953 3.78762L24.9289 13.4516C19.1334 19.2456 15.1938 23.2441 15.091 23.4364C14.7512 24.0722 14.889 24.9335 15.4225 25.5089C15.9537 26.0817 16.899 26.2567 17.558 25.9042C17.7503 25.8014 21.7475 21.8605 27.5397 16.0632L37.2006 6.39368L37.2407 11.7873C37.2776 16.761 37.292 17.2058 37.4253 17.5017C37.7394 18.1988 38.3848 18.6102 39.1648 18.6107C39.6885 18.6111 40.0821 18.4421 40.4766 18.0473C41.0378 17.486 41.0144 17.8922 40.9903 9.14933L40.9688 1.28877L40.7261 0.896277C40.5757 0.653033 40.3342 0.411393 40.091 0.26094L39.6986 0.0182572L31.7952 0.00374117C25.0125 -0.00868969 23.8449 0.00598673 23.561 0.107358ZM1.22722 7.55617C0.782255 7.72074 0.449293 7.99743 0.212621 8.39906L0 8.75996V24.2446V39.7294L0.242606 40.122C0.393011 40.3653 0.634494 40.6069 0.877741 40.7573L1.27019 41H16.75H32.2298L32.5962 40.7845C33.0088 40.5419 33.3353 40.1128 33.4698 39.6366C33.5355 39.404 33.5538 36.6598 33.5365 29.6518L33.5126 19.9878L33.34 19.667C33.1182 19.2548 32.8791 19.0352 32.4303 18.8317C31.3401 18.3373 30.0897 19.0017 29.8633 20.1957C29.8149 20.4511 29.7845 23.8218 29.7845 28.9409V37.2707H16.7563H3.72808V24.2384V11.206H12.0552C17.1727 11.206 20.5424 11.1756 20.7977 11.1272C21.9913 10.9008 22.6556 9.65001 22.1613 8.55946C21.9578 8.11051 21.7383 7.87127 21.3262 7.64944L21.0055 7.47677L11.2644 7.4617C3.20166 7.44926 1.47231 7.46555 1.22722 7.55617Z" fill="white"/>
</svg>
