<svg width="25" height="17" viewBox="0 0 25 17" fill="none" xmlns="http://www.w3.org/2000/svg">
<path fill-rule="evenodd" clip-rule="evenodd" d="M9.87201 0.190652C5.65331 0.261513 3.17584 0.438242 2.40109 0.723436C1.69839 0.982128 1.10471 1.46777 0.755842 2.06929C0.303053 2.84999 0.0641441 4.5586 0.00824935 7.41588C-0.0364352 9.69772 0.101946 11.7736 0.386113 13.0848C0.696141 14.5154 1.54489 15.3319 3.0128 15.6117C4.34619 15.8658 7.88639 16.0162 12.5312 16.0159C17.2737 16.0156 20.6572 15.8718 22.0729 15.6105C22.5352 15.5251 23.1939 15.2307 23.539 14.955C23.8979 14.6683 24.2642 14.1708 24.4164 13.7632C24.8318 12.6506 25.0876 9.40596 24.9722 6.71185C24.8157 3.05757 24.4866 1.90928 23.3778 1.14865C22.8641 0.796329 22.5111 0.667692 21.7198 0.544487C20.7405 0.391993 18.3791 0.257356 15.8942 0.212336C12.9824 0.159615 11.9421 0.155835 9.87201 0.190652ZM13.236 6.38995C14.992 7.30671 16.4267 8.0773 16.4243 8.10244C16.4208 8.13872 10.0852 11.4786 10.0199 11.4786C10.0102 11.4786 10.0024 9.95863 10.0024 8.10088C10.0024 6.24312 10.0116 4.72314 10.0228 4.72314C10.0342 4.72314 11.4801 5.47319 13.236 6.38995Z" fill="white" fill-opacity="0.7"/>
</svg>
