<svg width="20" height="20" viewBox="0 0 20 20" fill="none" xmlns="http://www.w3.org/2000/svg">
<path fill-rule="evenodd" clip-rule="evenodd" d="M11.2782 0.0639122C12.8227 0.283444 14.1827 0.788289 15.4571 1.61515C18.5621 3.6298 20.3425 7.33283 19.9449 10.9496C19.2534 17.2405 12.9744 21.4198 7.02178 19.5513C4.41366 18.7326 2.28637 16.9162 1.04798 14.4506C-0.349325 11.6687 -0.349325 8.31982 1.04798 5.53788C1.56617 4.50617 2.01608 3.87705 2.86051 3.00324C4.30552 1.50794 6.13515 0.527616 8.19029 0.147503C9.03387 -0.00852554 10.491 -0.0479594 11.2782 0.0639122ZM9.50066 6.50449C9.1336 6.77882 9.11921 6.8326 9.09999 8.00321L9.08237 9.07697L8.00949 9.09461C6.83569 9.1139 6.78684 9.12722 6.50575 9.50403C6.34137 9.72436 6.34137 10.2641 6.50575 10.4845C6.78684 10.8613 6.83569 10.8746 8.00949 10.8939L9.08237 10.9115L9.09999 11.9853C9.11927 13.1601 9.13257 13.2089 9.50908 13.4903C9.72922 13.6548 10.2686 13.6548 10.4887 13.4903C10.8652 13.2089 10.8785 13.1601 10.8978 11.9853L10.9154 10.9115L11.9883 10.8939C13.1621 10.8746 13.2109 10.8613 13.492 10.4845C13.6564 10.2641 13.6564 9.72436 13.492 9.50403C13.2108 9.12704 13.1624 9.1139 11.9849 9.09455L10.9086 9.07691V8.08822C10.9086 7.52602 10.8824 7.03051 10.8479 6.9394C10.7679 6.72795 10.5791 6.5272 10.3685 6.42961C10.1419 6.32462 9.68908 6.36372 9.50066 6.50449Z" fill="white" fill-opacity="0.7"/>
</svg>
