<svg width="469" height="467" viewBox="0 0 469 467" fill="none" xmlns="http://www.w3.org/2000/svg">
<path opacity="0.1" fill-rule="evenodd" clip-rule="evenodd" d="M240.959 161.416C237.265 158.953 232.451 158.953 228.756 161.416L134.546 224.223C131.486 226.263 129.647 229.698 129.647 233.375V356.769C129.647 362.844 134.572 367.769 140.647 367.769H329.068C335.143 367.769 340.068 362.844 340.068 356.769V233.375C340.068 229.698 338.23 226.263 335.17 224.223L240.959 161.416ZM238.186 218.242C236.171 216.898 233.545 216.898 231.53 218.242L184.924 249.312C183.255 250.425 182.253 252.298 182.253 254.304V315.234C182.253 318.547 184.939 321.234 188.253 321.234H281.463C284.777 321.234 287.463 318.547 287.463 315.233V254.304C287.463 252.298 286.46 250.425 284.791 249.312L238.186 218.242Z" fill="url(#paint0_linear_18_52)"/>
<path opacity="0.06" fill-rule="evenodd" clip-rule="evenodd" d="M240.602 76.4571C236.907 73.9938 232.093 73.9938 228.398 76.457L61.94 187.429C58.8799 189.469 57.0417 192.904 57.0417 196.582V416.306C57.0417 422.381 61.9666 427.306 68.0418 427.306H400.958C407.033 427.306 411.958 422.381 411.958 416.306V196.582C411.958 192.904 410.12 189.469 407.06 187.429L240.602 76.4571ZM240.368 139.979C237.009 137.74 232.633 137.74 229.274 139.979L115.917 215.551C113.135 217.405 111.464 220.528 111.464 223.871V372.995C111.464 378.518 115.941 382.995 121.464 382.995H348.178C353.7 382.995 358.178 378.518 358.178 372.995V223.871C358.178 220.528 356.507 217.405 353.725 215.551L240.368 139.979Z" fill="url(#paint1_linear_18_52)"/>
<path opacity="0.03" fill-rule="evenodd" clip-rule="evenodd" d="M240.602 1.84744C236.907 -0.61582 232.093 -0.615811 228.398 1.84745L4.8983 150.847C1.83811 152.888 0 156.322 0 160V455.78C0 461.855 4.92486 466.78 11 466.78H458C464.075 466.78 469 461.855 469 455.78V160C469 156.322 467.162 152.888 464.102 150.847L240.602 1.84744ZM240.476 56.8589C237.117 54.6195 232.741 54.6195 229.382 56.8589L48.1806 177.66C45.3986 179.514 43.7276 182.637 43.7276 185.98V425.563C43.7276 431.086 48.2048 435.563 53.7276 435.563H416.13C421.653 435.563 426.13 431.086 426.13 425.563V185.98C426.13 182.637 424.459 179.514 421.677 177.66L240.476 56.8589Z" fill="url(#paint2_linear_18_52)"/>
<defs>
<linearGradient id="paint0_linear_18_52" x1="345.5" y1="133" x2="212.541" y2="315.259" gradientUnits="userSpaceOnUse">
<stop stop-color="#645588"/>
<stop offset="0.83749" stop-color="#645588" stop-opacity="0"/>
</linearGradient>
<linearGradient id="paint1_linear_18_52" x1="333.5" y1="28" x2="211.94" y2="323.181" gradientUnits="userSpaceOnUse">
<stop stop-color="#645588"/>
<stop offset="1" stop-color="#645588" stop-opacity="0"/>
</linearGradient>
<linearGradient id="paint2_linear_18_52" x1="235" y1="17" x2="212.5" y2="233" gradientUnits="userSpaceOnUse">
<stop stop-color="#645588"/>
<stop offset="1" stop-color="#645588" stop-opacity="0"/>
</linearGradient>
</defs>
</svg>
