<svg width="17" height="18" viewBox="0 0 17 18" fill="none" xmlns="http://www.w3.org/2000/svg">
<path fill-rule="evenodd" clip-rule="evenodd" d="M7.7148 0.918086C4.00266 1.37978 1.08519 4.37645 0.701021 8.12231C0.644094 8.67746 0.678574 9.72862 0.771162 10.2592C0.917711 11.0993 1.16022 11.8384 1.53714 12.5937L1.72653 12.9733L1.16221 15.0477C0.851818 16.1887 0.602839 17.1259 0.608872 17.1304C0.614939 17.1349 1.56026 16.8885 2.7096 16.5829C4.38279 16.138 4.8161 16.0337 4.88358 16.0596C4.92992 16.0774 5.14985 16.175 5.3723 16.2765C6.0948 16.6063 6.85353 16.8249 7.6519 16.9336C8.20676 17.0091 9.18053 17.0087 9.72025 16.9326C11.4918 16.6831 13.0746 15.8946 14.3221 14.6403C14.9745 13.9844 15.4082 13.3845 15.8212 12.5671C16.1931 11.8309 16.4556 11.0284 16.6022 10.1787C16.6879 9.68207 16.6877 8.22275 16.602 7.7023C16.457 6.82304 16.2333 6.12055 15.851 5.34462C14.7631 3.13651 12.7541 1.56246 10.352 1.03617C9.60322 0.87212 8.48651 0.822117 7.7148 0.918086ZM9.82136 2.32211C10.7882 2.50207 11.59 2.82716 12.3829 3.36074C13.7367 4.27172 14.7333 5.68633 15.1272 7.25617C15.4165 8.40903 15.3937 9.71844 15.0652 10.827C14.534 12.6194 13.2678 14.1281 11.611 14.9431C10.6477 15.4168 9.75634 15.6234 8.67539 15.6234C7.43646 15.6234 6.33818 15.3209 5.21729 14.6707L5.02854 14.5612L3.7881 14.8893C3.10584 15.0697 2.54246 15.2121 2.53612 15.2057C2.52979 15.1994 2.66976 14.662 2.84719 14.0117C3.02458 13.3613 3.17103 12.8053 3.17261 12.7761C3.17419 12.7469 3.08697 12.5779 2.97877 12.4007C1.38918 9.79684 1.8058 6.36294 3.97479 4.19122C5.05372 3.11093 6.41965 2.44705 7.95073 2.25877C8.36426 2.20792 9.3954 2.24283 9.82136 2.32211ZM5.52893 5.28207C5.33401 5.37919 4.97785 5.80255 4.82894 6.11414C4.53645 6.72619 4.54241 7.49771 4.84515 8.2121C5.21719 9.08997 6.19059 10.3365 7.15152 11.1654C7.82508 11.7465 8.38785 12.087 9.21467 12.4136C10.0593 12.7472 10.2213 12.7856 10.782 12.7854C11.2229 12.7852 11.2929 12.7768 11.4979 12.699C11.835 12.5712 12.0866 12.4102 12.3373 12.1618C12.5318 11.9691 12.5709 11.9088 12.6346 11.7038C12.714 11.4483 12.7594 11.037 12.7239 10.8947C12.7053 10.8202 12.6101 10.7598 12.1313 10.5185C11.2539 10.0764 10.9003 9.92429 10.75 9.92429C10.6269 9.92429 10.6059 9.93949 10.457 10.1363C10.1167 10.5862 9.80441 10.9347 9.72304 10.9552C9.6256 10.9798 9.43412 10.9093 8.99188 10.6857C8.27585 10.3238 7.69168 9.83978 7.18944 9.19239C6.91609 8.84006 6.66994 8.43854 6.66994 8.34502C6.66994 8.30495 6.79667 8.10579 6.95158 7.90245C7.25516 7.50388 7.34404 7.35516 7.34404 7.24569C7.34404 7.20729 7.27822 7.01952 7.19776 6.82847C7.11731 6.63738 6.95505 6.24444 6.83719 5.95524C6.69108 5.59681 6.58851 5.39432 6.51497 5.31918L6.40704 5.20893L6.04134 5.20896C5.7348 5.20896 5.65192 5.2208 5.52893 5.28207Z" fill="white"/>
</svg>
