<svg width="17" height="17" viewBox="0 0 17 17" fill="none" xmlns="http://www.w3.org/2000/svg">
<path fill-rule="evenodd" clip-rule="evenodd" d="M7.123 0.628166C5.27691 0.782739 3.81758 1.19929 2.76903 1.87092C1.65998 2.58132 0.972199 3.89661 0.718402 5.79259C0.579754 6.82841 0.571082 8.80716 0.701092 9.74989C1.03734 12.1885 2.13891 13.6745 4.08624 14.3165L4.35927 14.4065L4.3593 15.3304C4.3593 16.0658 4.36959 16.2877 4.40977 16.4176C4.49927 16.707 4.70475 16.8702 4.97883 16.8696C5.269 16.8689 5.56874 16.6066 6.52107 15.52L7.04945 14.9172L8.32741 14.9149C9.68777 14.9124 10.0315 14.8881 11.0286 14.7234C11.5615 14.6355 12.5607 14.38 12.9483 14.2326C14.3955 13.6822 15.3779 12.5553 15.7894 10.9736C16.0871 9.82948 16.214 7.73789 16.0729 6.30116C15.8889 4.4281 15.352 3.09218 14.4409 2.24093C13.5876 1.44359 12.0995 0.92107 9.96944 0.670886C9.49736 0.615452 7.61275 0.587163 7.123 0.628166ZM9.88669 1.81793C11.7583 2.04202 13.1124 2.52659 13.7244 3.19119C14.3287 3.84741 14.6976 4.82068 14.873 6.22169C14.944 6.78881 14.9537 8.38727 14.8903 9.08239C14.7826 10.2629 14.6318 10.86 14.2736 11.5224C13.893 12.2266 13.2607 12.7884 12.5122 13.0876C12.2007 13.2122 11.2873 13.4446 10.7141 13.5453C9.89 13.69 9.37112 13.7325 8.31453 13.742L7.32159 13.751L6.9766 14.1582C6.447 14.7833 5.37571 16.0096 5.21158 16.1785C5.11109 16.2819 5.03844 16.3295 4.98092 16.3295C4.80497 16.3295 4.80613 16.3398 4.80613 14.7807V13.3375L4.60754 13.2733C4.03745 13.0893 3.5146 12.7848 3.11554 12.4045C2.42825 11.7495 2.05014 10.9301 1.8539 9.67042C1.76775 9.11742 1.76828 6.86487 1.85473 6.19299C1.97143 5.2857 2.13444 4.70606 2.44106 4.10795C2.84327 3.32336 3.32022 2.86949 4.14416 2.48737C4.91561 2.12956 5.97807 1.87874 7.17264 1.77241C7.6474 1.73017 9.39909 1.75954 9.88669 1.81793ZM8.12124 3.56703C8.08192 3.60482 8.06606 3.66063 8.07282 3.73768C8.08562 3.88399 8.1784 3.93202 8.44937 3.93266C8.55992 3.93291 8.79042 3.95624 8.9615 3.98447C10.1432 4.17941 11.0792 4.82983 11.617 5.82997C11.9056 6.36654 12.0522 6.91071 12.1034 7.63488C12.135 8.08169 12.1573 8.12882 12.3372 8.12882C12.4712 8.12882 12.5345 8.03836 12.5345 7.84695C12.5345 7.59368 12.4714 7.09754 12.3968 6.76386C11.9775 4.89061 10.4846 3.63215 8.56154 3.53098C8.22341 3.51318 8.17304 3.51731 8.12124 3.56703ZM5.30763 4.01291C4.94553 4.10121 4.33994 4.62237 4.1484 5.0106C4.0631 5.18351 4.04487 5.25961 4.04487 5.44295C4.04487 5.65241 4.06198 5.70362 4.33709 6.31705C4.8654 7.49515 5.39597 8.38683 6.0015 9.11418C6.45213 9.65545 7.1786 10.3008 7.83461 10.7426C8.47231 11.1721 9.54396 11.7425 10.1846 11.9935C10.6639 12.1813 10.8866 12.1953 11.1885 12.0565C11.6187 11.8588 12.177 11.2101 12.2501 10.8231C12.2886 10.6194 12.2238 10.4766 11.9966 10.2647C11.6444 9.93618 11.0592 9.51957 10.604 9.27326C10.4563 9.19335 10.371 9.16866 10.2399 9.16793C9.96716 9.16637 9.85485 9.23312 9.59229 9.55279C9.35266 9.84448 9.32608 9.86492 9.12603 9.91079C8.92364 9.95723 8.36772 9.74433 7.88634 9.43604C7.26942 9.04094 6.67352 8.27574 6.36018 7.4763C6.21323 7.10142 6.26526 6.95565 6.65979 6.63659C6.98448 6.37404 7.0568 6.24045 7.03453 5.94459C7.02291 5.79062 6.98918 5.70893 6.8273 5.44288C6.58945 5.05198 6.40914 4.80329 6.07282 4.40248C5.73615 4.00122 5.61289 3.93847 5.30763 4.01291ZM8.50485 4.61767C8.41819 4.67599 8.40204 4.85498 8.47694 4.92688C8.50256 4.95148 8.65193 4.98886 8.80892 5.00993C10.1488 5.18996 10.9254 5.99732 11.0291 7.31829C11.0533 7.62741 11.0985 7.71561 11.2323 7.71561C11.275 7.71561 11.3397 7.68701 11.3761 7.65204C11.4592 7.57223 11.4656 7.2799 11.3929 6.87981C11.1897 5.76083 10.417 4.95501 9.28669 4.6833C8.83857 4.57558 8.59745 4.55533 8.50485 4.61767ZM8.79445 5.74491C8.75805 5.77987 8.72826 5.84151 8.72826 5.88187C8.72826 6.01636 8.80061 6.06553 9.06278 6.10927C9.61393 6.20116 9.87961 6.47273 9.95077 7.0169C9.98318 7.26464 10.0477 7.36597 10.1732 7.36597C10.2816 7.36597 10.3832 7.25765 10.3832 7.14214C10.3832 6.96833 10.2804 6.56259 10.1957 6.40211C10.0844 6.19115 9.84032 5.94633 9.64802 5.85276C9.47369 5.76792 9.13411 5.68255 8.96822 5.68181C8.90424 5.68153 8.83381 5.70712 8.79445 5.74491Z" fill="white"/>
</svg>
