<svg width="17" height="14" viewBox="0 0 17 14" fill="none" xmlns="http://www.w3.org/2000/svg">
<path fill-rule="evenodd" clip-rule="evenodd" d="M15.5298 0.40516C14.4611 0.793882 1.28964 5.79703 1.09564 5.88797C0.450988 6.19007 0.375624 6.5891 0.912281 6.859C0.964094 6.88505 1.85562 7.16693 2.89345 7.48542L4.78045 8.06447L9.06523 5.4143C11.4218 3.95669 13.3975 2.74774 13.4555 2.72777C13.601 2.6776 13.7262 2.68229 13.7847 2.7401C13.8256 2.78055 13.8273 2.80086 13.7948 2.86032C13.7732 2.89965 12.2083 4.30483 10.3171 5.98291C8.42595 7.661 6.87354 9.04711 6.86729 9.06319C6.86107 9.07924 6.79711 9.91704 6.72513 10.925L6.59431 12.7575L6.73647 12.7386C6.81466 12.7281 6.93848 12.6882 7.01161 12.6499C7.08478 12.6116 7.57713 12.1706 8.10578 11.67C8.6344 11.1693 9.08523 10.7528 9.10762 10.7443C9.12998 10.7358 9.97183 11.3254 10.9784 12.0545C11.9849 12.7836 12.8873 13.4162 12.9837 13.4602C13.2366 13.5758 13.5214 13.5872 13.7064 13.4894C13.8716 13.4019 14.0331 13.1848 14.101 12.9587C14.1273 12.8711 14.7028 10.2423 15.3798 7.11676C16.5071 1.91292 16.6108 1.4091 16.6112 1.13901C16.6116 0.883828 16.6008 0.823129 16.5317 0.688815C16.4829 0.594118 16.3998 0.497435 16.3185 0.440927C16.1327 0.311705 15.8251 0.297765 15.5298 0.40516Z" fill="white"/>
</svg>
