<svg width="150" height="42" viewBox="0 0 150 42" fill="none" xmlns="http://www.w3.org/2000/svg">
<path fill-rule="evenodd" clip-rule="evenodd" d="M90.0616 9.74156C84.3085 11.0583 80.9098 17.4575 81.8425 25.2172C82.5248 30.8951 84.6888 33.9527 89.2278 35.6528C91.3892 36.4626 96.3168 36.5823 99.1357 35.8938C100.29 35.6116 101.71 35.1275 102.292 34.8178L103.35 34.2548L103.422 31.7336L103.495 29.2124L102.004 29.9394C99.7705 31.0287 97.5778 31.5165 94.8332 31.5346C92.8075 31.5481 92.2462 31.4629 91.3523 31.0058C89.9325 30.2796 88.9906 29.0299 88.5739 27.3187C87.963 24.811 87.1736 25.0526 95.9772 25.0526H103.731L103.729 23.2719C103.723 18.3201 102.697 14.3957 100.888 12.4104C98.4638 9.74991 94.4007 8.7483 90.0616 9.74156ZM139.602 9.83661C135.363 10.909 132.413 13.9813 131.32 18.4643C130.819 20.5174 130.819 25.6581 131.32 27.7112C132.449 32.3371 135.459 35.2503 140 36.1099C140.892 36.2787 142.756 36.3646 144.322 36.3094C146.637 36.2278 147.31 36.108 148.538 35.5583L150 34.9045V32.4449V29.9853L148.744 30.5947C146.1 31.8778 142.365 31.9863 140.561 30.8327C138.206 29.3273 137.452 27.3901 137.451 22.8421C137.45 20.0058 137.531 19.3274 138.009 18.1514C138.682 16.4945 140.014 15.1433 141.521 14.5873C143.092 14.0074 146.308 14.2213 148.422 15.0463L150 15.6623V13.1384V10.6147L149.033 10.2411C146.465 9.24837 142.584 9.08184 139.602 9.83661ZM30.0057 22.8421V35.8597H33.1835H36.3614V30.4561V25.0526H40.5561H44.7508L44.7676 28.307C44.7767 30.0968 44.7699 32.5286 44.7523 33.7105L44.7203 35.8597H47.9134H51.1064V22.8421V9.82458H47.9286H44.7508V14.9825V20.1404H40.5561H36.3614V14.9825V9.82458H33.1835H30.0057V22.8421ZM58.6251 14.6755C58.3633 21.9218 57.7404 26.434 56.5662 29.5965C56.0259 31.0513 56.0053 31.0712 54.961 31.1456L53.9029 31.2212V36.6105V42H56.8265H59.7501V38.9298V35.8597H66.9955H74.2409V38.9298V42H77.1645H80.0881V36.5965V31.193H78.6899H77.2916V20.5088V9.82458H68.0462H58.8005L58.6251 14.6755ZM108.053 22.8421V35.8597H111.226H114.4L114.468 29.5383L114.536 23.2167L119.181 29.5383L123.827 35.8597H127.411C130.241 35.8597 130.943 35.7951 130.747 35.5526C130.611 35.3839 128.406 32.3719 125.849 28.8597C123.291 25.3474 121.1 22.3509 120.979 22.2008C120.84 22.0267 122.368 19.785 125.211 15.9951C127.659 12.7319 129.662 10.0085 129.662 9.94345C129.662 9.87812 128.26 9.83023 126.548 9.8371L123.434 9.84938L118.985 15.8271L114.536 21.8049L114.468 15.8149L114.4 9.82458H111.226H108.053V22.8421ZM95.7446 15.288C96.646 16.2385 97.0373 17.3372 97.1667 19.2807L97.2483 20.5088L92.7005 20.5761L88.1526 20.6431L88.3153 19.4961C88.5884 17.5715 88.9679 16.5146 89.6793 15.6979C90.6423 14.5922 91.6424 14.223 93.4082 14.3213C94.7531 14.3964 94.9928 14.4954 95.7446 15.288ZM70.936 22.9649V31.193H66.3327C62.5356 31.193 61.7529 31.134 61.8635 30.856C62.9437 28.1358 63.7152 23.521 63.9728 18.2369L64.1433 14.7369H67.5395H70.936V22.9649Z" fill="black"/>
<path d="M1.01744 8.8701C2.00053 4.53993 5.30368 1.61638 10.4596 0.512596C12.1711 0.14614 13.7564 0.0505961 18.502 0.0279996L24.4128 0V17.9298V35.8596H21.3621H18.3114V20.2342V4.6087L15.07 4.71088C12.1795 4.802 11.6835 4.88403 10.4883 5.46933C7.99491 6.69003 6.87123 8.512 6.87123 11.3339C6.87123 15.1227 8.53666 17.6712 12.7184 20.2813C13.3476 20.6741 13.9196 21.0599 13.9895 21.139C14.0595 21.2181 14.4883 21.4915 14.9429 21.7469C15.3972 22.0023 15.7691 22.2924 15.7691 22.3914C15.7691 22.4906 13.7012 25.5615 11.1737 29.2158L6.57811 35.8596H3.28894H3.05176e-05L0.700166 34.8158C1.08557 34.2415 1.46259 33.7167 1.53835 33.6491C2.00765 33.2308 8.1421 24.0793 8.14058 23.7995C8.13956 23.6106 7.73127 23.1879 7.23325 22.8603C4.7815 21.2468 2.27382 18.2282 1.39954 15.8382C0.812788 14.2338 0.615764 10.6398 1.01744 8.8701Z" fill="#FC3F1D"/>
</svg>
