<svg width="150" height="48" viewBox="0 0 150 48" fill="none" xmlns="http://www.w3.org/2000/svg">
<path fill-rule="evenodd" clip-rule="evenodd" d="M49.0611 12.042C47.0976 12.4276 44.3411 13.8526 42.8357 15.2606C38.4656 19.3476 37.8041 26.7324 41.3624 31.7009C46.1915 38.4437 56.9839 38.4437 61.813 31.7009C65.3884 26.7088 64.6857 19.2584 60.2542 15.1742C57.3476 12.4955 52.9786 11.2727 49.0611 12.042ZM54.555 17.304C56.9191 18.5314 58.3078 20.7345 58.5098 23.5779C58.8401 28.2309 55.8951 31.7132 51.6295 31.7132C47.631 31.7132 44.931 29.0278 44.6606 24.7822C44.501 22.2764 45.0232 20.6348 46.5061 18.9808C48.6685 16.5688 51.8589 15.9043 54.555 17.304Z" fill="#EA4335"/>
<path fill-rule="evenodd" clip-rule="evenodd" d="M76.4116 12.042C74.4482 12.4276 71.6917 13.8526 70.1862 15.2606C65.8161 19.3476 65.1546 26.7324 68.713 31.7009C73.542 38.4437 84.3344 38.4437 89.1635 31.7009C92.7389 26.7088 92.0362 19.2584 87.6047 15.1742C84.6982 12.4955 80.3291 11.2727 76.4116 12.042ZM81.9054 17.304C84.2696 18.5314 85.6583 20.7345 85.8603 23.5779C86.1906 28.2309 83.2455 31.7132 78.9799 31.7132C74.9815 31.7132 72.2815 29.0278 72.011 24.7822C71.8515 22.2764 72.3737 20.6348 73.8566 18.9808C76.019 16.5688 79.2093 15.9043 81.9054 17.304Z" fill="#EA4335"/>
<path fill-rule="evenodd" clip-rule="evenodd" d="M15.6715 0.520868C6.19979 2.29353 -0.551032 10.7522 0.0354604 20.1123C0.121122 21.4778 0.391789 23.2778 0.637005 24.1123C2.51663 30.5061 7.88619 35.699 14.3368 37.3622C16.885 38.019 20.8432 38.0745 23.6082 37.4919C29.2159 36.3103 34.3178 31.5422 35.7631 26.1321C36.2891 24.1636 36.6038 20.8442 36.4267 19.1358L36.2562 17.4917H27.5377H18.8188V19.9744V22.4571H25.1186H31.4184L31.2545 23.2157C30.4989 26.7128 29.5508 28.3472 27.1198 30.3449C25.1651 31.9507 23.0633 32.698 20.0162 32.8701C15.7865 33.109 12.3411 31.8647 9.55372 29.0915C4.09192 23.6579 4.01392 14.836 9.37884 9.32075C14.0472 4.52164 21.7748 3.85462 26.9285 7.80573L28.3332 8.88241L30.0758 7.10368L31.8185 5.32494L30.8607 4.50564C28.3404 2.34981 25.0532 0.877001 21.7182 0.409421C19.1136 0.0444606 18.1198 0.062667 15.6715 0.520868Z" fill="#4285F4"/>
<path fill-rule="evenodd" clip-rule="evenodd" d="M103.514 12.1788C97.4 13.4543 92.8556 20.1505 93.9314 26.2986C94.102 27.2724 94.609 28.8598 95.0582 29.8263C98.1198 36.4121 106.243 38.8502 111.406 34.7336L112.581 33.797L112.428 36.0498C112.256 38.5731 111.705 40.1613 110.584 41.3645C108.002 44.1365 102.662 43.7543 100.419 40.637C99.9795 40.0266 99.5718 39.3809 99.5126 39.2024C99.4419 38.9883 98.6492 39.1965 97.1806 39.8148C95.957 40.3299 94.9132 40.792 94.861 40.8415C94.6264 41.064 96.3184 43.5001 97.5384 44.6966C100.079 47.188 103.06 48.2289 106.881 47.9583C111.976 47.5973 115.415 44.7853 116.922 39.7473C117.279 38.5522 117.377 35.9865 117.47 25.3707L117.584 12.4488H115.038H112.493V13.5786C112.493 14.2 112.422 14.7084 112.336 14.7084C112.25 14.7084 111.713 14.3321 111.143 13.8723C109.251 12.3446 106.087 11.6421 103.514 12.1788ZM109.17 17.4381C110.537 18.1131 111.313 18.9087 112.204 20.5481C112.771 21.5916 112.887 22.7441 112.887 24.3025C112.887 25.9534 112.748 26.9302 112.048 28.2665C109.276 33.086 102.802 32.9739 99.9271 28.0568C99.1296 26.6928 99.034 26.2864 99.0441 24.3025C99.0568 21.8836 99.6429 20.3512 101.155 18.7852C103.161 16.7064 106.539 16.1388 109.17 17.4381Z" fill="#4285F4"/>
<path d="M120.212 37V19.5001V2H122.817H125.422V19.5001V37H122.817H120.212Z" fill="#34A853"/>
<path fill-rule="evenodd" clip-rule="evenodd" d="M136.729 12.0746C133.805 12.8432 131.047 14.9231 129.542 17.4958C128.592 19.1192 128.012 21.6008 128.027 23.9784C128.06 29.4214 131.092 33.7418 136.067 35.4358C137.528 35.9332 138.261 36.0132 140.423 35.9114C144.317 35.728 146.793 34.541 149.244 31.6825L149.992 30.8108L148.085 29.5325C147.035 28.8293 146.076 28.2542 145.952 28.2542C145.828 28.2542 145.464 28.612 145.143 29.0492C143.629 31.1134 139.495 31.9529 136.952 30.7121C135.808 30.1543 134.129 28.4393 134.129 27.8296C134.129 27.6652 137.7 26.0488 142.063 24.2375C146.943 22.2121 149.999 20.8 150 20.5697C150.001 20.3639 149.612 19.3708 149.136 18.3628C147.933 15.8177 145.477 13.3742 143.297 12.5532C141.282 11.7943 138.552 11.5954 136.729 12.0746ZM141.512 16.9269C142.594 17.4223 143.769 18.7139 143.439 19.0466C143.108 19.3798 132.773 23.5847 132.632 23.4432C132.55 23.3602 132.635 22.6057 132.821 21.7668C133.72 17.7167 138.014 15.3258 141.512 16.9269Z" fill="#EA4335"/>
</svg>
