<svg width="147" height="40" viewBox="0 0 147 40" fill="none" xmlns="http://www.w3.org/2000/svg">
<g clip-path="url(#clip0_101_403)">
<path fill-rule="evenodd" clip-rule="evenodd" d="M39.0449 16.7189V27.2357C39.0449 34.0223 33.55 39.5503 26.8043 39.5503H12.4193C5.62891 39.5503 0.134033 34.0223 0.134033 27.2357V16.7189H8.7114V27.2357C8.7114 30.4268 11.3025 33.0335 14.4743 33.0335H24.7046C27.8765 33.0335 30.4675 30.4268 30.4675 27.2357V16.7189H39.0449ZM16.7974 13.438H22.4263C23.3197 13.438 24.0792 14.1571 24.0792 15.1009V24.8537C24.0792 25.7526 23.3644 26.5166 22.4263 26.5166H16.7974C15.9039 26.5166 15.1444 25.7975 15.1444 24.8537V15.1009C15.1444 14.202 15.9039 13.438 16.7974 13.438Z" fill="white"/>
<path fill-rule="evenodd" clip-rule="evenodd" d="M30.5122 0.988566C34.6669 2.33688 37.8834 5.8425 38.8215 10.202H30.5122V0.988566ZM12.4193 0.404297H24.0792V6.92115H14.4743C12.196 6.92115 10.2303 8.26947 9.29218 10.202H0.4021C1.56362 4.62902 6.52241 0.404297 12.4193 0.404297Z" fill="white"/>
<path d="M123.478 19.91V13.4831H127.276V19.955C127.276 23.0112 127.767 23.3258 130.135 23.3258H132.547V26.4718H129.688C125.489 26.4718 123.478 24.9437 123.478 19.91ZM114.588 21.3482C114.767 23.146 115.437 23.3258 117.403 23.3258H121.245V26.4718H116.956C112.801 26.4718 110.746 24.9437 110.746 19.8651C110.746 14.7864 112.757 13.4381 116.956 13.4381H121.245V16.5842H117.403C115.571 16.5842 114.856 16.719 114.633 18.2471H119.904V21.3033H114.588V21.3482ZM96.6294 13.4831V26.4718H102.482C106.636 26.4718 108.691 24.9437 108.691 19.8651C108.691 14.7864 106.681 13.4381 102.482 13.4381H96.6294V13.4831ZM104.939 19.955C104.939 23.0112 104.447 23.3258 102.08 23.3258H100.248V16.6291H102.08C104.403 16.6291 104.939 16.8538 104.939 19.955ZM140.544 13.1685C144.698 13.1685 146.977 14.5617 146.977 19.8201C146.977 25.1685 144.743 26.7415 140.544 26.7415C136.344 26.7415 134.111 25.1685 134.111 19.8201C134.111 14.5617 136.344 13.1685 140.544 13.1685ZM140.544 23.4606C142.911 23.4606 143.179 23.146 143.179 19.8201C143.179 16.719 142.911 16.4494 140.544 16.4494C138.131 16.4494 137.908 16.719 137.908 19.8201C137.863 23.146 138.131 23.4606 140.544 23.4606Z" fill="white"/>
<path d="M74.3818 21.3481C74.5605 23.1459 75.2306 23.3256 77.1962 23.3256H81.0382V26.4717H76.7495C72.5948 26.4717 70.5399 24.9436 70.5399 19.865C70.5399 14.7863 72.5502 13.438 76.7495 13.438H81.0382V16.5841H77.1962C75.3646 16.5841 74.6498 16.7189 74.4265 18.247H79.698V21.3032H74.3818V21.3481ZM58.0759 26.4717C53.9212 26.4717 51.8662 24.9436 51.8662 19.865V13.4829H55.6635V19.9548C55.6635 22.9661 56.1549 23.3256 58.4333 23.3256V13.4829H61.9625V23.3256C64.2855 23.3256 64.7769 22.9661 64.7769 19.9548V13.4829H68.5742V19.9099C68.5742 24.9886 66.5639 26.5166 62.3646 26.5166C60.9797 26.4717 59.5501 26.4717 58.0759 26.4717ZM86.8011 16.4942H89.8389C90.1516 16.4942 90.375 16.6739 90.375 17.438C90.375 18.247 90.1516 18.3369 89.8389 18.3369H86.8011V16.4942ZM86.8011 23.4155V21.2133H89.8389C90.2857 21.2133 90.5984 21.438 90.5984 22.3369C90.5984 23.1908 90.3303 23.4155 89.9283 23.4155H86.8011ZM91.4025 19.6852C93.7255 19.5054 94.217 18.4717 94.217 16.629C94.217 14.4268 93.5469 13.4829 90.9558 13.4829H83.2719V26.4717H90.9558C93.0554 26.4717 94.4403 25.6627 94.4403 23.011C94.3957 20.8987 93.8596 19.82 91.4025 19.6852Z" fill="white"/>
<path d="M100.382 31.3258C100.025 31.191 99.3992 31.1011 98.7737 31.1011C97.2548 31.1011 96.6294 31.5955 96.6294 32.8089C96.6294 33.7078 97.0761 34.0224 98.059 34.1573C98.9524 34.2471 99.0418 34.337 99.0418 34.5618C99.0418 34.7865 98.9524 34.8764 98.2823 34.8764C97.7462 34.8764 97.2548 34.7865 96.9421 34.7415L96.6741 35.8651C97.0761 36 97.6569 36.0898 98.2823 36.0898C99.8459 36.0898 100.427 35.7303 100.427 34.4719C100.427 33.573 99.9352 33.1235 98.8631 32.9887C98.0589 32.8988 97.9696 32.8539 97.9696 32.5842C97.9696 32.4044 98.059 32.2696 98.7291 32.2696C99.3098 32.2696 99.7566 32.3595 100.069 32.4044L100.382 31.3258ZM105.564 36V32.3595H107.128V31.191H102.705V32.3595H104.269V36H105.564ZM112.444 31.2359H113.739V34.7865C113.739 35.8202 112.891 36.1348 111.684 36.1348C110.434 36.1348 109.629 35.8651 109.629 34.7865V31.2359H110.925V34.4719C110.925 34.7415 111.104 34.8764 111.684 34.8764C112.265 34.8764 112.444 34.7415 112.444 34.4719V31.2359ZM116.509 31.2359V36H118.654C120.172 36 120.932 35.4606 120.932 33.573C120.932 31.7303 120.172 31.2359 118.654 31.2359H116.509ZM119.547 33.6179C119.547 34.7415 119.368 34.8764 118.475 34.8764H117.805V32.3595H118.475C119.368 32.3595 119.547 32.4494 119.547 33.6179ZM124.819 31.2359V36H123.523V31.2359H124.819ZM130.179 31.1011C131.698 31.1011 132.547 31.5955 132.547 33.528C132.547 35.5056 131.743 36.0898 130.179 36.0898C128.661 36.0898 127.812 35.5056 127.812 33.528C127.812 31.5955 128.616 31.1011 130.179 31.1011ZM130.179 34.8764C131.073 34.8764 131.162 34.7415 131.162 33.528C131.162 32.4044 131.073 32.2696 130.179 32.2696C129.286 32.2696 129.197 32.3595 129.197 33.528C129.197 34.7865 129.286 34.8764 130.179 34.8764Z" fill="white"/>
</g>
<defs>
<clipPath id="clip0_101_403">
<rect width="146.977" height="40" fill="white"/>
</clipPath>
</defs>
</svg>
