<svg width="139" height="40" viewBox="0 0 139 40" fill="none" xmlns="http://www.w3.org/2000/svg">
<path d="M57.493 13.0515C58.34 12.4174 58.7635 11.4135 58.7635 10.0925C58.7635 9.35271 58.5518 8.77147 58.1812 8.24307C57.8106 7.7675 57.2812 7.39762 56.593 7.2391C57.2283 7.02774 57.7047 6.65786 58.0224 6.1823C58.34 5.70674 58.4988 5.1255 58.4988 4.43857C58.4988 3.22325 58.0224 2.32497 57.1224 1.69089C56.2224 1.0568 54.8989 0.739762 53.2048 0.739762H48.3873V14.1083H53.8401C55.3754 14.0555 56.6459 13.7384 57.493 13.0515ZM51.5637 3.17041H53.1519C53.893 3.17041 54.4224 3.27609 54.7401 3.54029C55.0577 3.80449 55.2165 4.17437 55.2165 4.75561C55.2165 5.23118 55.0577 5.60106 54.7401 5.86526C54.4224 6.12946 53.946 6.23514 53.2048 6.23514H51.5637V3.17041ZM51.5637 11.572V8.34875H53.8401C54.9518 8.34875 55.5342 8.92999 55.5342 10.0396C55.5342 10.5152 55.3754 10.8851 55.0577 11.1493C54.7401 11.4135 54.3166 11.572 53.7342 11.572H51.5637ZM64.7987 14.2668C66.281 14.2668 67.4457 13.7913 68.2928 12.893C69.1398 11.9947 69.5633 10.7794 69.5633 9.19419V9.08851C69.5633 7.5033 69.1398 6.23514 68.2928 5.33686C67.4457 4.43857 66.2281 3.96301 64.7458 3.96301C63.7928 3.96301 62.8929 4.17437 62.2046 4.59709C61.4635 5.01982 60.9341 5.60106 60.5106 6.39366C60.1197 7.21935 59.9206 8.12247 59.9282 9.03567V9.56407C59.9812 10.9908 60.4576 12.1532 61.3047 12.9987C62.2046 13.8441 63.3693 14.2668 64.7987 14.2668ZM63.1046 8.66579C63.2105 7.13342 63.7399 6.34082 64.7987 6.34082C65.9634 6.34082 66.4928 7.2391 66.4928 9.03567V9.35271C66.4928 11.0436 65.9104 11.889 64.7987 11.889C64.2164 11.889 63.7928 11.6777 63.5281 11.255C63.2634 10.8322 63.1046 10.1453 63.1046 9.24703V8.66579ZM74.222 0H71.0986V14.1083H74.222V0ZM79.8866 14.2668C80.7866 14.2668 81.5278 13.9498 82.1631 13.2629V13.5799C82.1631 15.0066 81.4748 15.6935 80.0984 15.6935C79.1455 15.6935 78.4043 15.3765 77.822 14.6896L76.4985 16.4861C76.869 16.9089 77.3985 17.2787 78.0867 17.5429C78.7749 17.8071 79.4631 17.9657 80.2043 17.9657C81.2101 17.9657 82.1101 17.8071 82.9042 17.4373C83.6983 17.0674 84.2807 16.5918 84.7042 15.9577C85.1277 15.3236 85.3395 14.531 85.3395 13.6856V4.12153H82.5336L82.4278 4.96697C81.8454 4.28005 81.0513 3.91017 79.9925 3.91017C79.1455 3.91017 78.4573 4.12153 77.822 4.54425C77.1867 4.96698 76.7102 5.54822 76.3926 6.34082C76.0749 7.13342 75.9161 7.97886 75.9161 8.98283V9.08851C75.9161 10.6209 76.2867 11.889 77.0279 12.7873C77.6632 13.7913 78.669 14.2668 79.8866 14.2668ZM79.3572 7.08058C79.6749 6.60502 80.0984 6.34082 80.6807 6.34082C81.369 6.34082 81.8454 6.55218 82.1101 7.02774V11.2021C81.7925 11.6248 81.316 11.889 80.6278 11.889C80.0984 11.889 79.6219 11.6777 79.3572 11.2021C79.0396 10.7266 78.8808 10.0925 78.8808 9.24703C78.9337 8.29591 79.0396 7.55614 79.3572 7.08058ZM95.7687 13.897C95.504 13.4214 95.3451 12.7345 95.3451 11.7834V7.39762C95.3451 6.34082 94.9746 5.49538 94.2334 4.86129C93.4922 4.22721 92.4864 3.91017 91.2158 3.91017C89.9453 3.91017 88.8865 4.22721 88.0924 4.80845C87.2453 5.3897 86.8747 6.1823 86.8747 7.13342H89.9982C89.9982 6.39366 90.3688 6.02378 91.1099 6.02378C91.904 6.02378 92.2746 6.49934 92.2746 7.39762V7.92602H91.2688C89.7335 7.92602 88.5688 8.19023 87.7747 8.77147C86.9806 9.29987 86.5571 10.1453 86.5571 11.2021C86.5571 12.0476 86.8747 12.7873 87.563 13.3157C88.1982 13.897 89.0453 14.1612 89.9453 14.1612C90.9511 14.1612 91.7452 13.7913 92.3276 13.1044C92.4334 13.4742 92.4864 13.7913 92.6452 14.0026H95.7687V13.897ZM92.2217 11.255C92.1158 11.4663 91.904 11.6248 91.6923 11.8362C91.4276 11.9947 91.1099 12.1004 90.7394 12.1004C90.4217 12.1004 90.21 11.9947 89.9982 11.8362C89.7864 11.6777 89.7335 11.4135 89.7335 11.1493C89.7335 10.1982 90.2629 9.72259 91.3746 9.72259H92.2746V11.255H92.2217ZM100.163 7.7675C100.427 7.13342 101.063 6.86922 102.069 6.86922L103.074 6.92206L103.127 4.06869C102.863 4.01585 102.598 3.96301 102.28 3.96301C101.327 3.96301 100.639 4.43857 100.11 5.44254L100.004 4.17437H97.0922V14.1083H100.216V7.7675H100.163ZM109.11 11.9419C108.898 12.1004 108.58 12.2061 108.157 12.2061C107.68 12.2061 107.31 12.1004 107.045 11.889C106.727 11.6777 106.621 11.3606 106.568 10.8851H103.657C103.657 11.4663 103.869 11.9947 104.239 12.5231C104.61 13.0515 105.139 13.4742 105.827 13.7913C106.516 14.1083 107.257 14.2668 108.104 14.2668C109.374 14.2668 110.433 14.0026 111.227 13.4214C112.021 12.8402 112.445 12.1004 112.445 11.2021C112.445 9.88111 111.704 8.92999 110.168 8.45443C109.745 8.29591 109.215 8.19022 108.58 8.08454C107.998 7.97886 107.574 7.82034 107.31 7.66182C107.045 7.5033 106.886 7.29194 106.886 6.9749C106.886 6.7107 106.992 6.49934 107.204 6.28798C107.415 6.12946 107.68 6.02378 108.051 6.02378C108.898 6.02378 109.321 6.4465 109.321 7.2391H112.445C112.445 6.28798 112.021 5.49538 111.227 4.91413C110.433 4.33289 109.374 4.01585 108.051 4.01585C106.833 4.01585 105.827 4.33289 105.086 4.91413C104.345 5.49538 103.974 6.23514 103.974 7.18626C103.974 7.71466 104.08 8.13739 104.345 8.56011C104.61 8.98283 104.98 9.29987 105.51 9.56407C106.039 9.82827 106.674 10.0925 107.415 10.251C108.21 10.4095 108.739 10.568 109.004 10.7266C109.268 10.8851 109.427 11.0964 109.427 11.3606C109.427 11.572 109.321 11.7834 109.11 11.9419ZM123.403 4.12153H119.698L117.368 7.02774L117.051 7.45046V0H113.927V14.1083H117.051V11.3078L117.951 10.4624L120.121 14.1612H123.668L119.962 8.29591L123.403 4.12153ZM125.892 0.0528401C125.362 0.0528401 124.992 0.211361 124.621 0.475561C124.303 0.739762 124.145 1.10964 124.145 1.5852C124.145 2.00793 124.303 2.37781 124.621 2.69485C124.939 2.95905 125.362 3.11757 125.892 3.11757C126.421 3.11757 126.792 2.95905 127.162 2.69485C127.48 2.43065 127.639 2.06077 127.639 1.5852C127.639 1.16248 127.48 0.792602 127.162 0.475561C126.845 0.211361 126.421 0.0528401 125.892 0.0528401ZM124.356 14.0555H127.48V4.12153H124.356V14.0555ZM135.05 4.12153L133.409 9.72259L131.821 4.12153H128.486L131.98 14.1612L131.715 14.8481C131.609 15.1651 131.45 15.3765 131.186 15.535C130.974 15.6407 130.603 15.7464 130.18 15.7464H129.756V17.9657C130.172 18.0672 130.599 18.1204 131.027 18.1242C132.509 18.1242 133.515 17.4901 134.097 16.2219L134.256 15.7992L138.333 4.22721H135.05V4.12153ZM55.8518 24.0423C54.8989 23.5139 53.8401 23.2497 52.6754 23.2497H48.3343V36.6182H52.7284C53.893 36.6182 54.9518 36.354 55.9048 35.7728C56.8577 35.2444 57.5989 34.4518 58.0753 33.5007C58.6047 32.5495 58.8694 31.4399 58.8694 30.2246V29.5905C58.8694 28.3752 58.6047 27.2655 58.0753 26.3144C57.5459 25.3633 56.8047 24.5707 55.8518 24.0423ZM55.5871 30.2246C55.5871 31.5456 55.3224 32.4967 54.846 33.1308C54.3695 33.7649 53.6283 34.1347 52.7284 34.1347H51.5637V25.7332H52.6754C53.6283 25.7332 54.3695 26.0502 54.846 26.7371C55.3224 27.3712 55.5871 28.3752 55.5871 29.6433V30.2246ZM69.0869 23.8838C68.1869 23.3554 67.181 23.0912 66.0693 23.0912C64.9046 23.0912 63.8987 23.3554 62.9987 23.8838C62.0988 24.4122 61.4105 25.2048 60.9341 26.2087C60.4576 27.2127 60.1929 28.3752 60.1929 29.6962V30.4359C60.1929 31.7041 60.4576 32.8137 60.987 33.7649C61.5164 34.716 62.1517 35.5086 63.0517 35.9841C63.9517 36.5126 64.9575 36.7768 66.0693 36.7768C67.2339 36.7768 68.2398 36.5126 69.1398 35.9841C70.0398 35.4557 70.728 34.6631 71.2045 33.6592C71.6809 32.6552 71.9456 31.4927 71.9456 30.2246V29.5905C71.9456 28.3223 71.6809 27.1598 71.2045 26.1559C70.6751 25.2048 69.9339 24.4122 69.0869 23.8838ZM68.6104 30.2774C68.6104 31.5984 68.3986 32.5495 67.9222 33.2365C67.4986 33.9234 66.8634 34.2933 66.0163 34.2933C65.1693 34.2933 64.4811 33.9234 64.0575 33.2365C63.634 32.5495 63.4223 31.5456 63.4223 30.2246V29.2206C63.5281 26.79 64.3752 25.5746 66.0163 25.5746C66.8634 25.5746 67.4986 25.9445 67.9222 26.6314C68.3457 27.3184 68.6104 28.3223 68.6104 29.6433V30.2774ZM80.8396 32.5495L77.822 23.2497H73.5868V36.6182H76.8161V33.5007L76.4985 27.107L79.7808 36.6182H81.8984L85.1277 27.107L84.8101 33.5007V36.6182H88.0394V23.2497H83.7513L80.8396 32.5495ZM102.439 28.5865C102.016 28.5865 101.751 28.9036 101.751 29.5377V29.749C101.751 30.1189 101.804 30.4359 101.91 30.5945C102.016 30.753 102.227 30.8587 102.439 30.8587C102.916 30.8587 103.127 30.4888 103.127 29.8019V29.6962C103.18 28.9564 102.916 28.5865 102.439 28.5865ZM103.869 19.0753C98.0451 19.0753 93.3334 23.7781 93.3334 29.5377C93.3334 35.2972 98.0451 40 103.869 40C109.692 40 114.404 35.2972 114.404 29.5377C114.351 23.7252 109.639 19.0753 103.869 19.0753ZM97.6216 30.6473C97.7275 30.8058 97.8863 30.9115 98.098 30.9115C98.2569 30.9115 98.4157 30.8587 98.5216 30.753C98.6274 30.6473 98.6804 30.5416 98.6804 30.3303H99.898C99.898 30.8058 99.7392 31.1757 99.4215 31.4399C99.1039 31.7569 98.6804 31.8626 98.151 31.8626C97.5157 31.8626 97.0392 31.6513 96.7216 31.2814C96.351 30.9115 96.1922 30.3831 96.1922 29.6962V29.6433C96.1922 29.2206 96.2451 28.8507 96.404 28.5337C96.5628 28.2166 96.7745 27.9524 97.0922 27.7939C97.4098 27.6354 97.7275 27.5297 98.151 27.5297C98.6804 27.5297 99.1568 27.6882 99.4745 28.0053C99.7921 28.3223 99.9509 28.6922 99.9509 29.2206H98.6804C98.6804 29.0092 98.6274 28.8507 98.5216 28.745C98.4157 28.6394 98.2569 28.5865 98.098 28.5865C97.7804 28.5865 97.5686 28.7979 97.5157 29.2206C97.5157 29.3791 97.4628 29.5377 97.4628 29.8019C97.4628 30.2246 97.5157 30.4888 97.6216 30.6473ZM104.451 29.8019C104.451 30.4359 104.292 30.9643 103.921 31.3342C103.551 31.7041 103.074 31.9155 102.439 31.9155C101.857 31.9155 101.38 31.7569 101.01 31.3871C100.821 31.2012 100.672 30.9788 100.571 30.7336C100.471 30.4883 100.422 30.2252 100.427 29.9604V29.749C100.427 29.3635 100.518 28.9834 100.692 28.6394C100.851 28.3223 101.063 28.0581 101.38 27.8996C101.698 27.7411 102.069 27.6354 102.439 27.6354C103.074 27.6354 103.551 27.8468 103.921 28.2166C104.292 28.5337 104.451 29.0621 104.451 29.8019ZM111.227 31.8098H109.904V29.1678C109.904 28.9564 109.851 28.7979 109.798 28.6922C109.745 28.5865 109.586 28.5337 109.427 28.5337C109.163 28.5337 108.951 28.6394 108.845 28.8507V31.7569H107.521V29.1149C107.521 28.9036 107.468 28.745 107.415 28.6394C107.363 28.5337 107.204 28.4808 106.992 28.4808C106.727 28.4808 106.568 28.5865 106.41 28.7979V31.7041H105.086V27.5297H106.304L106.357 28.0053C106.674 27.6354 107.045 27.424 107.574 27.424C108.104 27.424 108.474 27.6354 108.633 28.0581C108.898 27.6354 109.321 27.424 109.851 27.424C110.698 27.424 111.121 27.9524 111.174 28.9564V31.8098H111.227ZM4.92343 16.9617V36.8296H34.517V16.9617L19.7467 7.39762L4.92343 16.9617ZM0 13.6856L2.48819 16.2219L19.9584 4.70277L37.0051 16.1691L39.5463 13.6856L20.0114 0.475561L0 13.6856Z" fill="white"/>
</svg>
