<svg width="20" height="20" viewBox="0 0 20 20" fill="none" xmlns="http://www.w3.org/2000/svg">
<path fill-rule="evenodd" clip-rule="evenodd" d="M0.242965 0.0582905C-0.0185157 0.171893 0.000345589 -0.600361 0.000345589 9.99676C0.000345589 20.6285 -0.0199996 19.8235 0.251517 19.9369C0.452782 20.021 3.02338 20.021 3.22465 19.9369C3.3976 19.8647 3.47582 19.6883 3.47582 19.3705V19.1349H9.75803C13.2132 19.1349 16.0996 19.124 16.172 19.1105C16.2803 19.0905 16.5525 18.8374 17.695 17.6949C18.8375 16.5523 19.0905 16.2801 19.1106 16.1719C19.124 16.0994 19.135 13.2129 19.135 9.75757V3.47507H19.3705C19.6883 3.47507 19.8647 3.39685 19.9369 3.22389C20.021 3.02261 20.021 0.451896 19.9369 0.250622C19.8234 -0.020946 20.6299 -0.000717096 9.9887 0.000962142C1.74277 0.00228991 0.353009 0.0104518 0.242965 0.0582905ZM2.61671 1.73725V2.61593H1.73808H0.859452V1.73725V0.858584H1.73808H2.61671V1.73725ZM19.135 1.73725V2.61593H11.3054H3.47582V1.73725V0.858584H11.3054H19.135V1.73725ZM2.61671 11.305V19.1349H1.73808H0.859452V11.305V3.47507H1.73808H2.61671V11.305ZM9.56766 4.60953C9.56766 5.87033 9.5752 5.91348 9.8159 6.02771C9.98296 6.10698 10.0115 6.10698 10.1785 6.02771C10.4192 5.91348 10.4268 5.87033 10.4268 4.60953V3.47507H14.3318H18.2368V9.11809V14.7611L16.7236 14.7633C15.0901 14.7657 15.0066 14.7749 14.8626 14.9689C14.7833 15.0759 14.7805 15.1259 14.7694 16.6579L14.758 18.2367H9.1169H3.47582V14.3315V10.4263H4.61023C5.87097 10.4263 5.91412 10.4188 6.02834 10.1781C6.10761 10.011 6.10761 9.98251 6.02834 9.81544C5.91412 9.57473 5.87097 9.56719 4.61023 9.56719H3.47582V6.52113V3.47507H6.52174H9.56766V4.60953ZM9.89959 7.84343C9.77998 7.8817 9.70594 7.93727 9.63366 8.04311C9.57762 8.12504 9.56766 8.24746 9.56766 8.85344V9.56719H8.86101C8.09777 9.56719 7.99042 9.59152 7.88506 9.78842C7.77729 9.98977 7.84828 10.2455 8.04404 10.3612C8.13905 10.4173 8.28802 10.4263 9.11679 10.4263C10.5053 10.4263 10.4268 10.5048 10.4268 9.11629C10.4268 8.28749 10.4177 8.13851 10.3616 8.0435C10.2678 7.88475 10.0565 7.79325 9.89959 7.84343ZM18.2368 15.786C18.2368 15.9 18.1205 16.0291 17.0753 17.0747C16.0282 18.1223 15.9013 18.2367 15.7867 18.2367H15.6595V16.948V15.6593H16.9482H18.2368V15.786Z" fill="#8F8F8F"/>
</svg>
