<svg width="20" height="20" viewBox="0 0 20 20" fill="none" xmlns="http://www.w3.org/2000/svg">
<path fill-rule="evenodd" clip-rule="evenodd" d="M19.1385 0.0400841C19.0848 0.0611054 18.765 0.353333 18.4279 0.689401L17.8149 1.30046L17.4101 0.910554C17.1876 0.696121 16.9487 0.497122 16.8792 0.468364C16.6984 0.393422 9.95439 0.737382 9.77903 0.830454C9.60853 0.920987 0.0862816 10.4698 0.0387034 10.598C-0.0194999 10.7548 -0.0118436 10.9217 0.0602269 11.0663C0.146477 11.2394 8.73153 19.8325 8.91235 19.9267C9.07415 20.0111 9.23516 20.0225 9.39966 19.9615C9.52778 19.9139 19.074 10.3891 19.1646 10.2185C19.2576 10.0431 19.6015 3.29729 19.5266 3.11643C19.4978 3.04695 19.2991 2.80822 19.085 2.58589L18.6957 2.1816L19.324 1.54834C19.9962 0.870778 20.04 0.800095 19.9812 0.486416C19.9144 0.130499 19.4864 -0.0962028 19.1385 0.0400841ZM16.6491 1.94146L16.9114 2.20591L16.2706 2.84608L15.6297 3.48621L15.4212 3.40213C14.5973 3.06985 13.6691 3.28499 13.0701 3.9472C12.7051 4.35055 12.5362 4.795 12.5332 5.35957C12.5301 5.94778 12.7324 6.44401 13.1424 6.8542C13.5469 7.2588 14.0442 7.46405 14.6237 7.46569C16.1285 7.46987 17.154 5.96505 16.5936 4.57479L16.5095 4.36626L17.1498 3.72487L17.7901 3.08353L18.0505 3.34735L18.3109 3.61113L18.1551 6.63929L17.9994 9.66746L13.5885 14.0827L9.17759 18.4979L5.33973 14.659L1.50183 10.8201L5.9159 6.40884L10.3299 1.99757L13.1815 1.85554C14.7499 1.77739 16.077 1.70792 16.1307 1.70112C16.1844 1.69428 16.264 1.68608 16.3076 1.68287C16.3581 1.67912 16.4817 1.77278 16.6491 1.94146ZM14.8957 4.53802C15.1231 4.60558 15.398 4.8896 15.4639 5.12513C15.638 5.74722 15.0818 6.34117 14.4518 6.20601C13.6501 6.03401 13.5269 4.93055 14.2707 4.58413C14.4946 4.47984 14.659 4.46773 14.8957 4.53802ZM8.71825 7.30334C8.5361 7.41443 8.43571 7.5992 8.43555 7.82383C8.43548 7.9273 8.45481 8.05038 8.47856 8.09734C8.53993 8.21874 11.7534 11.4388 11.8807 11.5064C12.0345 11.5882 12.3364 11.5773 12.4885 11.4846C12.5585 11.4418 12.6507 11.3496 12.6934 11.2796C12.7861 11.1275 12.797 10.8255 12.7153 10.6716C12.6476 10.5443 9.42849 7.32995 9.30712 7.26857C9.16837 7.19839 8.86052 7.21656 8.71825 7.30334ZM6.3736 9.67383C6.13121 9.79335 5.99735 10.1208 6.06977 10.4173C6.09926 10.5381 9.30974 13.7904 9.4979 13.8901C9.55595 13.9208 9.68778 13.9459 9.79087 13.9458C10.1419 13.9455 10.3881 13.6993 10.3884 13.3481C10.3884 13.245 10.3633 13.1132 10.3325 13.0551C10.2459 12.892 7.02399 9.69598 6.89965 9.64972C6.74125 9.59084 6.52153 9.60092 6.3736 9.67383Z" fill="#8F8F8F"/>
</svg>
