<svg width="90" height="91" viewBox="0 0 90 91" fill="none" xmlns="http://www.w3.org/2000/svg">
<mask id="mask0_377_7" style="mask-type:alpha" maskUnits="userSpaceOnUse" x="0" y="0" width="90" height="91">
<path d="M89.5 45.5C89.5 70.358 69.5715 90.5 45 90.5C20.4285 90.5 0.5 70.358 0.5 45.5C0.5 20.642 20.4285 0.5 45 0.5C69.5715 0.5 89.5 20.642 89.5 45.5Z" fill="#C4C4C4" stroke="black"/>
</mask>
<g mask="url(#mask0_377_7)">
<rect x="-14.5" y="-0.5" width="123" height="124" fill="#F29D61" stroke="black"/>
<path d="M45.3 28.1C48.1 28.1 50.3167 28.3667 51.95 28.9C53.6167 29.4 54.8167 30.3 55.55 31.6C56.2833 32.9 56.65 34.7333 56.65 37.1C56.65 39.5667 56.1833 41.45 55.25 42.75C54.35 44.05 52.8667 44.8 50.8 45V45.2C53.3667 45.4333 55.15 46.3333 56.15 47.9C57.1833 49.4667 57.7 51.6333 57.7 54.4C57.7 56.7667 57.3333 58.6 56.6 59.9C55.9 61.2 54.75 62.1167 53.15 62.65C51.55 63.15 49.45 63.4 46.85 63.4C44.95 63.4 43.3167 63.3833 41.95 63.35C40.6167 63.35 39.3833 63.3167 38.25 63.25C37.1167 63.1833 35.9167 63.1 34.65 63L35.35 60.4C36.05 60.4333 37.4 60.4667 39.4 60.5C41.4 60.5333 43.7333 60.55 46.4 60.55C48.4 60.55 49.9667 60.3833 51.1 60.05C52.2667 59.6833 53.1 59.0333 53.6 58.1C54.1 57.1333 54.35 55.7333 54.35 53.9C54.35 51.9333 54.0833 50.4167 53.55 49.35C53.05 48.2833 52.1833 47.5333 50.95 47.1C49.75 46.6667 48.1 46.4333 46 46.4H35.3V43.85H46C47.8333 43.8167 49.2833 43.6333 50.35 43.3C51.45 42.9333 52.2333 42.2833 52.7 41.35C53.2 40.4167 53.45 39.1 53.45 37.4C53.45 35.6333 53.1833 34.2833 52.65 33.35C52.15 32.4167 51.2833 31.7833 50.05 31.45C48.85 31.1167 47.2167 30.95 45.15 30.95C43.5833 30.95 42.1667 30.95 40.9 30.95C39.6333 30.95 38.5333 30.9667 37.6 31C36.6667 31 35.9167 31.0333 35.35 31.1L34.65 28.5C35.75 28.3667 36.8 28.2833 37.8 28.25C38.8 28.1833 39.8833 28.15 41.05 28.15C42.25 28.1167 43.6667 28.1 45.3 28.1ZM37.85 28.5V63H34.65V28.5H37.85Z" fill="white"/>
</g>
</svg>
