<svg width="136" height="40" viewBox="0 0 136 40" fill="none" xmlns="http://www.w3.org/2000/svg">
<path d="M56.5638 12.9657C57.3936 12.3444 57.8085 11.3609 57.8085 10.0667C57.8085 9.34196 57.6011 8.77252 57.238 8.25485C56.875 7.78895 56.3563 7.42658 55.6821 7.27128C56.3044 7.06421 56.7712 6.70184 57.0824 6.23594C57.3936 5.77004 57.5492 5.2006 57.5492 4.52763C57.5492 3.33698 57.0824 2.45694 56.2007 1.83574C55.319 1.21453 54.0224 0.903933 52.3627 0.903933H47.643V14.001H52.9851C54.4892 13.9492 55.7339 13.6386 56.5638 12.9657ZM50.7549 3.28522H52.3108C53.0369 3.28522 53.5556 3.38875 53.8668 3.64759C54.178 3.90642 54.3336 4.26879 54.3336 4.83823C54.3336 5.30413 54.178 5.6665 53.8668 5.92534C53.5556 6.18417 53.0888 6.28771 52.3627 6.28771H50.7549V3.28522ZM50.7549 11.5162V8.35839H52.9851C54.0742 8.35839 54.6448 8.92782 54.6448 10.0149C54.6448 10.4808 54.4892 10.8432 54.178 11.102C53.8668 11.3609 53.4519 11.5162 52.8813 11.5162H50.7549ZM63.7211 14.1563C65.1733 14.1563 66.3144 13.6904 67.1442 12.8104C67.9741 11.9303 68.389 10.7397 68.389 9.18666V9.08313C68.389 7.53011 67.9741 6.28771 67.1442 5.40767C66.3144 4.52763 65.1215 4.06172 63.6693 4.06172C62.7357 4.06172 61.854 4.26879 61.1797 4.68293C60.4536 5.09706 59.935 5.6665 59.5201 6.44301C59.1371 7.25193 58.9421 8.13671 58.9496 9.03136V9.54903C59.0014 10.9467 59.4682 12.0856 60.298 12.9139C61.1797 13.7422 62.3208 14.1563 63.7211 14.1563ZM62.0615 8.66899C62.1652 7.16774 62.6838 6.39124 63.7211 6.39124C64.8622 6.39124 65.3808 7.27128 65.3808 9.03136V9.34196C65.3808 10.9985 64.8103 11.8268 63.7211 11.8268C63.1506 11.8268 62.7357 11.6197 62.4764 11.2056C62.217 10.7914 62.0615 10.1185 62.0615 9.23843V8.66899ZM72.9531 0.179194H69.8931V14.001H72.9531V0.179194ZM78.5026 14.1563C79.3843 14.1563 80.1105 13.8457 80.7328 13.1727V13.4833C80.7328 14.881 80.0586 15.554 78.7101 15.554C77.7765 15.554 77.0504 15.2434 76.4799 14.5704L75.1833 16.3305C75.5463 16.7446 76.065 17.107 76.7392 17.3659C77.4135 17.6247 78.0877 17.78 78.8138 17.78C79.7993 17.78 80.681 17.6247 81.4589 17.2623C82.2369 16.9 82.8074 16.434 83.2224 15.8128C83.6373 15.1916 83.8447 14.4151 83.8447 13.5869V4.21702H81.0959L80.9922 5.0453C80.4216 4.37232 79.6437 4.00996 78.6064 4.00996C77.7765 4.00996 77.1023 4.21702 76.4799 4.63116C75.8575 5.0453 75.3907 5.61473 75.0796 6.39124C74.7684 7.16775 74.6128 7.99602 74.6128 8.97959V9.08313C74.6128 10.5844 74.9758 11.8268 75.7019 12.7068C76.3243 13.6904 77.3097 14.1563 78.5026 14.1563ZM77.984 7.11598C78.2952 6.65007 78.7101 6.39124 79.2806 6.39124C79.9549 6.39124 80.4216 6.59831 80.681 7.06421V11.1538C80.3698 11.5679 79.903 11.8268 79.2287 11.8268C78.7101 11.8268 78.2433 11.6197 77.984 11.1538C77.6728 10.6879 77.5172 10.0667 77.5172 9.23843C77.5691 8.30662 77.6728 7.58188 77.984 7.11598ZM94.0621 13.7939C93.8028 13.328 93.6472 12.6551 93.6472 11.7232V7.42658C93.6472 6.39124 93.2842 5.56297 92.5581 4.94176C91.8319 4.32056 90.8465 4.00996 89.6017 4.00996C88.357 4.00996 87.3197 4.32056 86.5417 4.89C85.7119 5.45943 85.3488 6.23594 85.3488 7.16775H88.4089C88.4089 6.44301 88.7719 6.08064 89.498 6.08064C90.276 6.08064 90.639 6.54654 90.639 7.42658V7.94425H89.6536C88.1495 7.94425 87.0085 8.20309 86.2305 8.77252C85.4525 9.29019 85.0376 10.1185 85.0376 11.1538C85.0376 11.9821 85.3488 12.7068 86.0231 13.2245C86.6454 13.7939 87.4753 14.0528 88.357 14.0528C89.3424 14.0528 90.1204 13.6904 90.6909 13.0174C90.7946 13.3798 90.8465 13.6904 91.0021 13.8975H94.0621V13.7939ZM90.5872 11.2056C90.4835 11.4126 90.276 11.5679 90.0685 11.775C89.8092 11.9303 89.498 12.0338 89.135 12.0338C88.8238 12.0338 88.6163 11.9303 88.4089 11.775C88.2014 11.6197 88.1495 11.3609 88.1495 11.102C88.1495 10.1702 88.6682 9.70433 89.7573 9.70433H90.639V11.2056H90.5872ZM98.3669 7.78895C98.6263 7.16775 99.2486 6.90891 100.234 6.90891L101.219 6.96068L101.271 4.16526C101.012 4.11349 100.753 4.06172 100.442 4.06172C99.508 4.06172 98.8337 4.52763 98.3151 5.5112L98.2113 4.26879H95.3588V14.001H98.4188V7.78895H98.3669ZM107.132 11.8785C106.925 12.0338 106.613 12.1374 106.199 12.1374C105.732 12.1374 105.369 12.0338 105.109 11.8268C104.798 11.6197 104.694 11.3091 104.643 10.8432H101.79C101.79 11.4126 101.997 11.9303 102.361 12.448C102.724 12.9657 103.242 13.3798 103.916 13.6904C104.591 14.001 105.317 14.1563 106.147 14.1563C107.391 14.1563 108.429 13.8975 109.207 13.328C109.985 12.7586 110.4 12.0338 110.4 11.1538C110.4 9.85963 109.673 8.92782 108.169 8.46192C107.754 8.30662 107.236 8.20309 106.613 8.09955C106.043 7.99602 105.628 7.84072 105.369 7.68542C105.109 7.53011 104.954 7.32305 104.954 7.01244C104.954 6.75361 105.058 6.54654 105.265 6.33947C105.472 6.18417 105.732 6.08064 106.095 6.08064C106.925 6.08064 107.34 6.49477 107.34 7.27128H110.4C110.4 6.33947 109.985 5.56297 109.207 4.99353C108.429 4.42409 107.391 4.11349 106.095 4.11349C104.902 4.11349 103.916 4.42409 103.19 4.99353C102.464 5.56297 102.101 6.28771 102.101 7.21951C102.101 7.73718 102.205 8.15132 102.464 8.56546C102.724 8.97959 103.087 9.29019 103.605 9.54903C104.124 9.80786 104.746 10.0667 105.472 10.222C106.25 10.3773 106.769 10.5326 107.028 10.6879C107.288 10.8432 107.443 11.0503 107.443 11.3091C107.443 11.5162 107.34 11.7232 107.132 11.8785ZM121.136 4.21702H117.505L115.223 7.06421L114.912 7.47835V0.179194H111.852V14.001H114.912V11.2573L115.794 10.4291L117.92 14.0528H121.395L117.764 8.30662L121.136 4.21702ZM123.573 0.230961C123.055 0.230961 122.692 0.386262 122.329 0.645098C122.017 0.903933 121.862 1.2663 121.862 1.73221C121.862 2.14634 122.017 2.50871 122.329 2.81931C122.64 3.07815 123.055 3.23345 123.573 3.23345C124.092 3.23345 124.455 3.07815 124.818 2.81931C125.129 2.56048 125.285 2.19811 125.285 1.73221C125.285 1.31807 125.129 0.9557 124.818 0.645098C124.507 0.386262 124.092 0.230961 123.573 0.230961ZM122.069 13.9492H125.129V4.21702H122.069V13.9492ZM132.546 4.21702L130.938 9.70433L129.382 4.21702H126.115L129.538 14.0528L129.278 14.7257C129.175 15.0363 129.019 15.2434 128.76 15.3987C128.552 15.5022 128.189 15.6058 127.774 15.6058H127.359V17.78C127.767 17.8794 128.185 17.9316 128.604 17.9353C130.056 17.9353 131.042 17.3141 131.612 16.0717L131.768 15.6575L135.762 4.32056H132.546V4.21702ZM54.9559 23.7332C54.0224 23.2155 52.9851 22.9567 51.844 22.9567H47.5911V36.0538H51.8959C53.0369 36.0538 54.0742 35.7949 55.0078 35.2255C55.9414 34.7078 56.6675 33.9313 57.1343 32.9995C57.6529 32.0677 57.9123 30.9806 57.9123 29.7899V29.1687C57.9123 27.9781 57.6529 26.891 57.1343 25.9592C56.6156 25.0274 55.8895 24.2509 54.9559 23.7332ZM54.6966 29.7899C54.6966 31.0841 54.4373 32.0159 53.9705 32.6371C53.5037 33.2583 52.7776 33.6207 51.8959 33.6207H50.7549V25.3897H51.844C52.7776 25.3897 53.5037 25.7003 53.9705 26.3733C54.4373 26.9945 54.6966 27.9781 54.6966 29.2205V29.7899ZM67.9222 23.5779C67.0405 23.0602 66.055 22.8014 64.9659 22.8014C63.8249 22.8014 62.8394 23.0602 61.9577 23.5779C61.076 24.0956 60.4018 24.8721 59.935 25.8556C59.4682 26.8392 59.2089 27.9781 59.2089 29.2723V29.997C59.2089 31.2394 59.4682 32.3265 59.9869 33.2583C60.5055 34.1901 61.1279 34.9666 62.0096 35.4326C62.8913 35.9502 63.8767 36.2091 64.9659 36.2091C66.1069 36.2091 67.0923 35.9502 67.9741 35.4326C68.8558 34.9149 69.53 34.1384 69.9968 33.1548C70.4636 32.1712 70.7229 31.0324 70.7229 29.7899V29.1687C70.7229 27.9263 70.4636 26.7875 69.9968 25.8039C69.4781 24.8721 68.752 24.0956 67.9222 23.5779ZM67.4554 29.8417C67.4554 31.1359 67.2479 32.0677 66.7812 32.7407C66.3662 33.4136 65.7439 33.776 64.914 33.776C64.0842 33.776 63.4099 33.4136 62.995 32.7407C62.5801 32.0677 62.3726 31.0841 62.3726 29.7899V28.8064C62.4764 26.4251 63.3062 25.2344 64.914 25.2344C65.7439 25.2344 66.3662 25.5968 66.7812 26.2698C67.1961 26.9428 67.4554 27.9263 67.4554 29.2205V29.8417ZM79.4362 32.0677L76.4799 22.9567H72.3307V36.0538H75.4945V32.9995L75.1833 26.7357L78.3989 36.0538H80.4735L83.6373 26.7357L83.3261 32.9995V36.0538H86.4898V22.9567H82.2888L79.4362 32.0677ZM100.597 28.1852C100.182 28.1852 99.9229 28.4958 99.9229 29.117V29.324C99.9229 29.6864 99.9747 29.997 100.078 30.1523C100.182 30.3076 100.39 30.4111 100.597 30.4111C101.064 30.4111 101.271 30.0488 101.271 29.3758V29.2723C101.323 28.5475 101.064 28.1852 100.597 28.1852ZM101.997 18.8671C96.2923 18.8671 91.6763 23.4744 91.6763 29.117C91.6763 34.7596 96.2923 39.3668 101.997 39.3668C107.703 39.3668 112.319 34.7596 112.319 29.117C112.267 23.4226 107.651 18.8671 101.997 18.8671ZM95.8774 30.2041C95.9811 30.3594 96.1367 30.4629 96.3442 30.4629C96.4998 30.4629 96.6554 30.4111 96.7591 30.3076C96.8628 30.2041 96.9147 30.1005 96.9147 29.8935H98.1076C98.1076 30.3594 97.952 30.7218 97.6408 30.9806C97.3296 31.2912 96.9147 31.3947 96.3961 31.3947C95.7737 31.3947 95.3069 31.1877 94.9957 30.8253C94.6326 30.4629 94.4771 29.9452 94.4771 29.2723V29.2205C94.4771 28.8064 94.5289 28.444 94.6845 28.1334C94.8401 27.8228 95.0476 27.564 95.3588 27.4087C95.6699 27.2534 95.9811 27.1498 96.3961 27.1498C96.9147 27.1498 97.3815 27.3051 97.6927 27.6157C98.0039 27.9263 98.1595 28.2887 98.1595 28.8064H96.9147C96.9147 28.5993 96.8628 28.444 96.7591 28.3405C96.6554 28.2369 96.4998 28.1852 96.3442 28.1852C96.033 28.1852 95.8255 28.3922 95.7737 28.8064C95.7737 28.9617 95.7218 29.117 95.7218 29.3758C95.7218 29.7899 95.7737 30.0488 95.8774 30.2041ZM102.568 29.3758C102.568 29.997 102.412 30.5147 102.049 30.8771C101.686 31.2394 101.219 31.4465 100.597 31.4465C100.027 31.4465 99.5598 31.2912 99.1968 30.9288C99.0115 30.7467 98.8654 30.5289 98.7673 30.2886C98.6693 30.0483 98.6212 29.7905 98.6263 29.5311V29.324C98.6261 28.9464 98.7149 28.574 98.8856 28.2369C99.0412 27.9263 99.2486 27.6675 99.5598 27.5122C99.871 27.3569 100.234 27.2534 100.597 27.2534C101.219 27.2534 101.686 27.4604 102.049 27.8228C102.412 28.1334 102.568 28.6511 102.568 29.3758ZM109.207 31.343H107.91V28.7546C107.91 28.5475 107.858 28.3922 107.806 28.2887C107.754 28.1852 107.599 28.1334 107.443 28.1334C107.184 28.1334 106.977 28.2369 106.873 28.444V31.2912H105.576V28.7028C105.576 28.4958 105.524 28.3405 105.472 28.2369C105.421 28.1334 105.265 28.0816 105.058 28.0816C104.798 28.0816 104.643 28.1852 104.487 28.3922V31.2394H103.19V27.1498H104.383L104.435 27.6157C104.746 27.2534 105.109 27.0463 105.628 27.0463C106.147 27.0463 106.51 27.2534 106.665 27.6675C106.925 27.2534 107.34 27.0463 107.858 27.0463C108.688 27.0463 109.103 27.564 109.155 28.5475V31.343H109.207ZM5.06185 16.7964V36.2608H34.0544V16.7964L19.584 7.42658L5.06185 16.7964ZM0.238403 13.5869L2.67606 16.0717L19.7915 4.78646L36.492 16.0199L38.9815 13.5869L19.8434 0.645098L0.238403 13.5869Z" fill="#645588"/>
</svg>
